<?xml version="1.0" encoding="UTF-8" standalone="no"?>
<svg
   xmlns:dc="http://purl.org/dc/elements/1.1/"
   xmlns:cc="http://creativecommons.org/ns#"
   xmlns:rdf="http://www.w3.org/1999/02/22-rdf-syntax-ns#"
   xmlns:svg="http://www.w3.org/2000/svg"
   xmlns="http://www.w3.org/2000/svg"
   xmlns:sodipodi="http://sodipodi.sourceforge.net/DTD/sodipodi-0.dtd"
   xmlns:inkscape="http://www.inkscape.org/namespaces/inkscape"
   viewBox="0 0 512 512"
   id="svg2"
   version="1.1"
   inkscape:version="0.48.3.1 r9886"
   width="100%"
   height="100%"
   sodipodi:docname="hazard-sign.svg"
   inkscape:export-filename="/home/jami/workspace/valley-of-bones/art/exported/hazard-sign.png"
   inkscape:export-xdpi="11.25"
   inkscape:export-ydpi="11.25">
  <metadata
     id="metadata20">
    <rdf:RDF>
      <cc:Work
         rdf:about="">
        <dc:format>image/svg+xml</dc:format>
        <dc:type
           rdf:resource="http://purl.org/dc/dcmitype/StillImage" />
        <dc:title></dc:title>
      </cc:Work>
    </rdf:RDF>
  </metadata>
  <defs
     id="defs18" />
  <sodipodi:namedview
     pagecolor="#ffffff"
     bordercolor="#666666"
     borderopacity="1"
     objecttolerance="10"
     gridtolerance="10"
     guidetolerance="10"
     inkscape:pageopacity="0"
     inkscape:pageshadow="2"
     inkscape:window-width="640"
     inkscape:window-height="480"
     id="namedview16"
     showgrid="false"
     inkscape:zoom="0.4609375"
     inkscape:cx="256"
     inkscape:cy="256"
     inkscape:window-x="0"
     inkscape:window-y="40"
     inkscape:window-maximized="0"
     inkscape:current-layer="svg2" />
  <path
     d="m0,0h512v512h-512z"
     id="path4" />
  <g
     transform="matrix(18.68858,0,0,18.68858,-916.83801,-44232.45566)"
     id="g6">
    <path
       d="m66.5555,2372.2937c-2.1434-4.1396-5.5804-4.1586-7.6768-.042l-7.0939,12.32c-2.5089,3.9281-.8071,6.9179 3.8009,6.678h14.185c4.608.2399 6.3098-2.7499 3.8009-6.678z"
       fill="#fff"
       stroke="#fff"
       id="path8" />
    <path
       d="m59.9463,2372.8621 1.5439,12.133h2.2386l1.5439-12.133c-1.8677-4.0576-3.6141-2.7803-5.3263,0z"
       id="path10" />
    <path
       d="m61.4351,2386.1812h2.3487v2.3487h-2.3487z"
       id="path12" />
    <path
       d="m66.098,2373.5021c-2.2747-4.3911-4.5268-4.4416-6.771-.037l-6.2568,10.861c-2.542,3.978-1.8712,6.2004 3.3524,5.9287h12.5112c4.8139.2504 6.0729-1.6714 3.3524-5.9287z"
       fill="none"
       stroke="#000"
       id="path14" />
  </g>
</svg>
