<?xml version="1.0" encoding="UTF-8" standalone="no"?>
<svg
   xmlns:dc="http://purl.org/dc/elements/1.1/"
   xmlns:cc="http://creativecommons.org/ns#"
   xmlns:rdf="http://www.w3.org/1999/02/22-rdf-syntax-ns#"
   xmlns:svg="http://www.w3.org/2000/svg"
   xmlns="http://www.w3.org/2000/svg"
   xmlns:sodipodi="http://sodipodi.sourceforge.net/DTD/sodipodi-0.dtd"
   xmlns:inkscape="http://www.inkscape.org/namespaces/inkscape"
   viewBox="0 0 512 512"
   id="svg2"
   version="1.1"
   inkscape:version="0.48.3.1 r9886"
   width="100%"
   height="100%"
   sodipodi:docname="skull-crossed-bones.svg"
   inkscape:export-filename="/home/jami/workspace/valley-of-bones/art/exported/skull-crossed-bones.png"
   inkscape:export-xdpi="5.6199999"
   inkscape:export-ydpi="5.6199999">
  <metadata
     id="metadata34">
    <rdf:RDF>
      <cc:Work
         rdf:about="">
        <dc:format>image/svg+xml</dc:format>
        <dc:type
           rdf:resource="http://purl.org/dc/dcmitype/StillImage" />
        <dc:title></dc:title>
      </cc:Work>
    </rdf:RDF>
  </metadata>
  <defs
     id="defs32" />
  <sodipodi:namedview
     pagecolor="#ffffff"
     bordercolor="#666666"
     borderopacity="1"
     objecttolerance="10"
     gridtolerance="10"
     guidetolerance="10"
     inkscape:pageopacity="0"
     inkscape:pageshadow="2"
     inkscape:window-width="640"
     inkscape:window-height="480"
     id="namedview30"
     showgrid="false"
     inkscape:zoom="0.90820312"
     inkscape:cx="256"
     inkscape:cy="256"
     inkscape:window-x="0"
     inkscape:window-y="40"
     inkscape:window-maximized="0"
     inkscape:current-layer="svg2" />
  <path
     d="m0,0h512v512h-512z"
     id="path4" />
  <g
     transform="matrix(18.68858,0,0,18.68858,-12485.09861,-33370.52379)"
     id="g6">
    <path
       d="m693.1052,1806.9942c-6.3094-2.1445-16.5643-13.2316-19.4711-19.4711-.8138-1.7467-3.565-.025-1.947,1.947-1.9402-1.792-3.6689.7136-1.6411,1.6411 5.8898,2.6937 17.0224,13.5807 19.4711,19.471 .9205,2.2143 3.8399.5208 1.6966-1.6966 2.5344,1.8395 4.2778-1.0802 1.8914-1.8914z"
       fill="#fff"
       id="path8" />
    <path
       d="m693.1052,1791.4251c-6.3094,2.1445-16.5643,13.2316-19.4711,19.4711-.8138,1.7467-3.565.025-1.947-1.947-1.9402,1.792-3.6689-.7136-1.6411-1.6411 5.8898-2.6937 17.0224-13.5807 19.4711-19.471 .9205-2.2143 3.8399-.5208 1.6966,1.6966 2.5344-1.8395 4.2778,1.0802 1.8914,1.8914z"
       fill="#fff"
       id="path10" />
    <path
       d="m689.0409,1799.6464c0,3.3782-2.7386,6.1168-6.1169,6.1168s-6.1169-2.7386-6.1169-6.1168 2.7386-6.1169 6.1169-6.1169 6.1169,2.7386 6.1169,6.1169z"
       fill="#fff"
       stroke="#000"
       stroke-width=".875"
       transform="matrix(1.14286,0,0,1.14286,-98.85505,-258.11815)"
       id="path12" />
    <path
       d="m681.6295,1799.6562 1.6021,2.579h-3.2042z"
       id="path14" />
    <path
       d="m679.1627,1798.7345c0,.9862-.7995,1.7857-1.7857,1.7857s-1.7857-.7995-1.7857-1.7857 .7995-1.7857 1.7857-1.7857 1.7857.7995 1.7857,1.7857z"
       transform="matrix(1.07858,0,0,1.07858,-45.40571,-141.29725)"
       id="path16" />
    <path
       d="m679.1627,1798.7345c0,.9862-.7995,1.7857-1.7857,1.7857s-1.7857-.7995-1.7857-1.7857 .7995-1.7857 1.7857-1.7857 1.7857.7995 1.7857,1.7857z"
       transform="matrix(1.07858,0,0,1.07858,-52.55183,-141.29725)"
       id="path18" />
    <g
       transform="translate(.1207,.114)"
       id="g20">
      <path
         d="m678.7258,1803.7874v3.3435"
         fill="none"
         stroke="#fff"
         id="path22" />
      <path
         d="m680.5874,1803.7874v3.3435"
         fill="none"
         stroke="#fff"
         id="path24" />
      <path
         d="m682.4301,1803.7874v3.3435"
         fill="none"
         stroke="#fff"
         id="path26" />
      <path
         d="m684.2917,1803.7874v3.3435"
         fill="none"
         stroke="#fff"
         id="path28" />
    </g>
  </g>
</svg>
