<?xml version="1.0" encoding="UTF-8" standalone="no"?>
<!-- Created with Inkscape (http://www.inkscape.org/) -->

<svg
   xmlns:dc="http://purl.org/dc/elements/1.1/"
   xmlns:cc="http://creativecommons.org/ns#"
   xmlns:rdf="http://www.w3.org/1999/02/22-rdf-syntax-ns#"
   xmlns:svg="http://www.w3.org/2000/svg"
   xmlns="http://www.w3.org/2000/svg"
   xmlns:sodipodi="http://sodipodi.sourceforge.net/DTD/sodipodi-0.dtd"
   xmlns:inkscape="http://www.inkscape.org/namespaces/inkscape"
   width="64"
   height="64"
   id="svg2"
   version="1.1"
   inkscape:version="0.48.3.1 r9886"
   sodipodi:docname="castle.svg"
   inkscape:export-filename="/home/jami/workspace/valley-of-bones/art/castle-overlay.png"
   inkscape:export-xdpi="90"
   inkscape:export-ydpi="90">
  <defs
     id="defs4" />
  <sodipodi:namedview
     id="base"
     pagecolor="#000000"
     bordercolor="#666666"
     borderopacity="1.0"
     inkscape:pageopacity="0"
     inkscape:pageshadow="2"
     inkscape:zoom="11.2"
     inkscape:cx="40.134431"
     inkscape:cy="32.552566"
     inkscape:document-units="px"
     inkscape:current-layer="g3757"
     showgrid="false"
     inkscape:window-width="1920"
     inkscape:window-height="1052"
     inkscape:window-x="0"
     inkscape:window-y="0"
     inkscape:window-maximized="1" />
  <metadata
     id="metadata7">
    <rdf:RDF>
      <cc:Work
         rdf:about="">
        <dc:format>image/svg+xml</dc:format>
        <dc:type
           rdf:resource="http://purl.org/dc/dcmitype/StillImage" />
        <dc:title></dc:title>
      </cc:Work>
    </rdf:RDF>
  </metadata>
  <g
     inkscape:label="guide"
     inkscape:groupmode="layer"
     id="layer1"
     transform="translate(0,-988.36218)"
     style="display:none">
    <path
       style="color:#000000;fill:none;stroke:#000000;stroke-width:0.1;stroke-miterlimit:4;stroke-dasharray:none;marker:none;visibility:visible;display:inline;overflow:visible;enable-background:accumulate"
       d="m 0,1004.3622 32,-16.00002 32,16.00002 0,32 -32,16 -32,-16 z"
       id="rect3750"
       inkscape:connector-curvature="0"
       sodipodi:nodetypes="ccccccc" />
  </g>
  <g
     transform="translate(0,-988.36218)"
     id="g3757"
     inkscape:groupmode="layer"
     inkscape:label="castle"
     style="display:inline">
    <path
       style="color:#000000;fill:#999999;fill-opacity:1;fill-rule:nonzero;stroke:none;stroke-width:0.1;marker:none;visibility:visible;display:inline;overflow:visible;enable-background:accumulate"
       d="m 24.137697,988.628 1.693105,0 1.693106,2 1.693105,0 1.693105,-2 1.693106,0 1.693105,2 1.693105,0 1.693106,-2 1.693105,0 0,8.1393 -2,0.1393 0,24.2785 c -3.333749,3.023 -6.900895,4.3345 -11.237948,0 l 0,-24.2785 -2,-0.1393 z"
       id="rect3764-9"
       inkscape:connector-curvature="0"
       sodipodi:nodetypes="ccccccccccccccccc" />
    <path
       style="color:#000000;fill:#b3b3b3;stroke:none;stroke-width:0.1;marker:none;visibility:visible;display:inline;overflow:visible;enable-background:accumulate"
       d="m 3.3889598,1012.3622 15.2154222,0 5.607712,8 7.607711,2 7.607711,-2 5.607711,-8 15.215423,0 -2,-7.882 -13.215422,-4.5 -13.215423,-2.5 -13.215423,2.5 -13.2154222,4.5 z"
       id="rect3761-9"
       inkscape:connector-curvature="0"
       sodipodi:nodetypes="ccccccccccccc" />
    <path
       transform="translate(0,988.36218)"
       style="color:#000000;fill:#cccccc;stroke:none;stroke-width:0.1;marker:none;visibility:visible;display:inline;overflow:visible;enable-background:accumulate"
       d="m 3.3889598,19.118004 15.2154222,0 5.607712,10 7.607711,2 7.607711,-2 5.607711,-10 15.215423,0 L 58.25065,43 31.819805,56 5.3889598,43 z"
       id="rect3761"
       inkscape:connector-curvature="0"
       sodipodi:nodetypes="ccccccccccc" />
    <path
       style="color:#000000;fill:#999999;fill-opacity:1;fill-rule:nonzero;stroke:none;stroke-width:0.1;marker:none;visibility:visible;display:inline;overflow:visible;enable-background:accumulate"
       d="m 48.137697,998.628 1.693105,0 1.693106,2 1.693105,0 1.693105,-2 1.693106,0 1.693105,2 1.693105,0 1.693106,-2 1.693105,0 0,8.1393 -2,0.1393 0,24.2785 c -3.333749,3.023 -6.900895,4.3345 -11.237948,0 l 0,-24.2785 -2,-0.1393 z"
       id="rect3764-3"
       inkscape:connector-curvature="0"
       sodipodi:nodetypes="ccccccccccccccccc" />
    <path
       style="color:#000000;fill:#999999;fill-opacity:1;fill-rule:nonzero;stroke:none;stroke-width:0.1;marker:none;visibility:visible;display:inline;overflow:visible;enable-background:accumulate"
       d="m 0.938,998.628 1.693105,0 1.693106,2 1.693105,0 1.693105,-2 1.693106,0 1.693105,2 1.693105,0 1.693106,-2 1.693105,0 0,8.1393 -2,0.1393 0,24.2785 c -3.333749,3.023 -6.900895,4.3345 -11.237948,0 l 0,-24.2785 -2,-0.1393 z"
       id="rect3764-3-8"
       inkscape:connector-curvature="0"
       sodipodi:nodetypes="ccccccccccccccccc" />
    <path
       style="color:#000000;fill:#999999;fill-opacity:1;fill-rule:nonzero;stroke:none;stroke-width:0.1;marker:none;visibility:visible;display:inline;overflow:visible;enable-background:accumulate"
       d="m 24.137697,1010.628 1.693105,0 1.693106,2 1.693105,0 1.693105,-2 1.693106,0 1.693105,2 1.693105,0 1.693106,-2 1.693105,0 0,8.1393 -2,0.1393 0,24.2785 c -3.333749,3.023 -6.900895,4.3345 -11.237948,0 l 0,-24.2785 -2,-0.1393 z"
       id="rect3764"
       inkscape:connector-curvature="0"
       sodipodi:nodetypes="ccccccccccccccccc" />
  </g>
  <g
     inkscape:groupmode="layer"
     id="layer2"
     inkscape:label="overlay">
    <path
       style="color:#000000;fill:#ffffff;fill-opacity:1;fill-rule:nonzero;stroke:none;stroke-width:0.1;marker:none;visibility:visible;display:inline;overflow:visible;enable-background:accumulate"
       d="m 4.1964288,12.214286 1.9642857,0 0,16.875 -0.9821429,2 -0.9821428,-2 z"
       id="rect2991"
       inkscape:connector-curvature="0"
       sodipodi:nodetypes="cccccc" />
    <path
       style="color:#000000;fill:#ffffff;fill-opacity:1;fill-rule:nonzero;stroke:none;stroke-width:0.1;marker:none;visibility:visible;display:inline;overflow:visible;enable-background:accumulate"
       d="m 10.996,12.214286 1.964285,0 0,16.875 -0.982142,2 -0.982143,-2 z"
       id="rect2991-4"
       inkscape:connector-curvature="0"
       sodipodi:nodetypes="cccccc" />
    <path
       style="color:#000000;fill:#ffffff;fill-opacity:1;fill-rule:nonzero;stroke:none;stroke-width:0.1;marker:none;visibility:visible;display:inline;overflow:visible;enable-background:accumulate"
       d="m 27.403786,24.294643 1.964286,0 0,16.875 -0.982143,2 -0.982143,-2 z"
       id="rect2991-7"
       inkscape:connector-curvature="0"
       sodipodi:nodetypes="cccccc" />
    <path
       style="color:#000000;fill:#ffffff;fill-opacity:1;fill-rule:nonzero;stroke:none;stroke-width:0.1;marker:none;visibility:visible;display:inline;overflow:visible;enable-background:accumulate"
       d="m 34.203357,24.294643 1.964285,0 0,16.875 -0.982142,2 -0.982143,-2 z"
       id="rect2991-4-3"
       inkscape:connector-curvature="0"
       sodipodi:nodetypes="cccccc" />
    <path
       style="color:#000000;fill:#ffffff;fill-opacity:1;fill-rule:nonzero;stroke:none;stroke-width:0.1;marker:none;visibility:visible;display:inline;overflow:visible;enable-background:accumulate"
       d="m 51.421643,12.151786 1.964286,0 0,16.875 -0.982143,2 -0.982143,-2 z"
       id="rect2991-0"
       inkscape:connector-curvature="0"
       sodipodi:nodetypes="cccccc" />
    <path
       style="color:#000000;fill:#ffffff;fill-opacity:1;fill-rule:nonzero;stroke:none;stroke-width:0.1;marker:none;visibility:visible;display:inline;overflow:visible;enable-background:accumulate"
       d="m 58.221215,12.151786 1.964285,0 0,16.875 -0.982142,2 -0.982143,-2 z"
       id="rect2991-4-7"
       inkscape:connector-curvature="0"
       sodipodi:nodetypes="cccccc" />
  </g>
</svg>
