<?xml version="1.0" encoding="UTF-8" standalone="no"?>
<!-- Created with Inkscape (http://www.inkscape.org/) -->

<svg
   xmlns:dc="http://purl.org/dc/elements/1.1/"
   xmlns:cc="http://creativecommons.org/ns#"
   xmlns:rdf="http://www.w3.org/1999/02/22-rdf-syntax-ns#"
   xmlns:svg="http://www.w3.org/2000/svg"
   xmlns="http://www.w3.org/2000/svg"
   xmlns:sodipodi="http://sodipodi.sourceforge.net/DTD/sodipodi-0.dtd"
   xmlns:inkscape="http://www.inkscape.org/namespaces/inkscape"
   width="64"
   height="64"
   id="svg2"
   version="1.1"
   inkscape:version="0.48.3.1 r9886"
   sodipodi:docname="marine.svg"
   inkscape:export-filename="/home/jami/workspace/valley-of-bones/art/marine-overlay.png"
   inkscape:export-xdpi="90"
   inkscape:export-ydpi="90">
  <defs
     id="defs4" />
  <sodipodi:namedview
     id="base"
     pagecolor="#000000"
     bordercolor="#666666"
     borderopacity="1.0"
     inkscape:pageopacity="0"
     inkscape:pageshadow="2"
     inkscape:zoom="9.6398542"
     inkscape:cx="32"
     inkscape:cy="34.47984"
     inkscape:document-units="px"
     inkscape:current-layer="layer1"
     showgrid="false"
     inkscape:window-width="1920"
     inkscape:window-height="1052"
     inkscape:window-x="0"
     inkscape:window-y="0"
     inkscape:window-maximized="1" />
  <metadata
     id="metadata7">
    <rdf:RDF>
      <cc:Work
         rdf:about="">
        <dc:format>image/svg+xml</dc:format>
        <dc:type
           rdf:resource="http://purl.org/dc/dcmitype/StillImage" />
        <dc:title></dc:title>
      </cc:Work>
    </rdf:RDF>
  </metadata>
  <g
     inkscape:label="guide"
     inkscape:groupmode="layer"
     id="layer1"
     transform="translate(0,-988.36218)"
     style="display:inline">
    <path
       style="color:#000000;fill:none;stroke:#000000;stroke-width:0.1;stroke-miterlimit:4;stroke-dasharray:none;marker:none;visibility:visible;display:inline;overflow:visible;enable-background:accumulate"
       d="m 0,1004.3622 32,-16.00002 32,16.00002 0,32 -32,16 -32,-16 z"
       id="rect3750"
       inkscape:connector-curvature="0"
       sodipodi:nodetypes="ccccccc" />
  </g>
  <g
     transform="translate(0,-988.36218)"
     id="g3757"
     inkscape:groupmode="layer"
     inkscape:label="marine"
     style="display:inline">
    <path
       style="color:#000000;fill:#b3b3b3;fill-opacity:1;fill-rule:nonzero;stroke:#000000;stroke-width:1;marker:none;visibility:visible;display:inline;overflow:visible;enable-background:accumulate"
       d="m 15.5625,1009.4158 c 1.739762,-2.6193 7.21875,-2 7.21875,-2 l 9.21875,0 9.21875,0 c 0,0 5.478988,-0.6193 7.21875,2 4.020314,6.0527 -6,21.4285 -6,21.4285 l -20.875,0 c 0,0 -10.020314,-15.3758 -6,-21.4285 z"
       id="rect3760"
       inkscape:connector-curvature="0"
       sodipodi:nodetypes="scccsccs" />
    <path
       transform="translate(-8.1785698,987.38004)"
       style="color:#000000;fill:#b3b3b3;fill-opacity:1;fill-rule:nonzero;stroke:#000000;stroke-width:1;marker:none;visibility:visible;display:inline;overflow:visible;enable-background:accumulate"
       d="m 54.910712,15.160714 c 0,3.772302 -1.648951,5.18748 -4.314945,7.659583 -2.665993,2.472103 -6.349029,2.001131 -10.417197,2.001131 -4.068169,0 -7.751205,0.470972 -10.417198,-2.00113 C 27.095378,20.348195 25.446427,18.933016 25.446427,15.160714 25.446427,7.6161101 32.042232,1.5 40.17857,1.5 c 8.136337,0 14.732142,6.1161101 14.732142,13.660714 z"
       id="path2990"
       inkscape:connector-curvature="0"
       sodipodi:nodetypes="sssssss" />
    <path
       style="color:#000000;fill:#4d4d4d;fill-opacity:1;fill-rule:nonzero;stroke:#000000;stroke-width:1;marker:none;visibility:visible;display:inline;overflow:visible;enable-background:accumulate"
       d="m 21.508928,996.64789 c 1.061652,-1.54098 3.405194,-1.66106 5.245536,-2 1.719592,-0.3167 3.497024,0 5.245536,0 1.748512,0 3.525944,-0.3167 5.245536,0 1.840342,0.33894 4.183884,0.45902 5.245536,2 0.878011,1.27443 0.686577,3.25584 0,4.64281 -0.975508,1.9706 -3.162289,3.2963 -5.245536,4 -1.656563,0.5595 -3.497024,-2 -5.245536,-2 -1.748512,0 -3.588973,2.5595 -5.245536,2 -2.083247,-0.7037 -4.270028,-2.0294 -5.245536,-4 -0.686577,-1.38697 -0.878011,-3.36838 0,-4.64281 z"
       id="rect3847"
       inkscape:connector-curvature="0"
       sodipodi:nodetypes="sssssssssss" />
    <path
       style="color:#000000;fill:#b3b3b3;fill-opacity:1;fill-rule:nonzero;stroke:#000000;stroke-width:1;marker:none;visibility:visible;display:inline;overflow:visible;enable-background:accumulate"
       d="m 21.5625,43.09375 -3,11.75 -5,3.75 15.65625,0 2.84375,-8.96875 2.8125,8.96875 15.625,0 -5,-3.75 -3,-11.75 -9.28125,0 -2.34375,0 z"
       transform="translate(0,988.36218)"
       id="rect3768"
       inkscape:connector-curvature="0"
       sodipodi:nodetypes="cccccccccccc" />
    <path
       style="fill:#b3b3b3;stroke:#000000;stroke-width:1px;stroke-linecap:butt;stroke-linejoin:miter;stroke-opacity:1"
       d="m 43.080457,1006.1946 c 0,0 4.036518,-2.707 6.201623,-2.2948 2.096054,0.3994 4.238672,2.2055 4.766218,4.2731 0.278157,1.0901 -1.12636,3.1817 -1.12636,3.1817 l 7.336539,7.7464 -17.366829,1.8386 -3.765035,-0.077 -2.085728,-3.089 3.156401,-3.1163 13.28269,1.7246 -7.122594,-3.2725"
       id="path3776-5"
       inkscape:connector-curvature="0"
       sodipodi:nodetypes="csscccccccc"
       inkscape:transform-center-x="-1.3416574"
       inkscape:transform-center-y="8.9777414" />
    <path
       style="color:#000000;fill:#000000;fill-opacity:1;fill-rule:nonzero;stroke:none;stroke-width:1;marker:none;visibility:visible;display:inline;overflow:visible;enable-background:accumulate"
       d="m 10.733479,1022.5432 10.451607,-2.5923 12.033089,-10.4343 11.242359,-6.5134 11.242352,-6.51335 3.765083,5.75235 -10.459766,7.6913 -21.655784,12.8748 2.282281,5.4608 -1.696018,1.4979 -3.771083,-5.2416 -6.538711,8.482 z"
       id="rect3844"
       inkscape:connector-curvature="0"
       sodipodi:nodetypes="ccccccccccccc" />
    <path
       style="fill:#b3b3b3;stroke:#000000;stroke-width:1px;stroke-linecap:butt;stroke-linejoin:miter;stroke-opacity:1"
       d="m 16.547246,1006.6691 c 0,0 -4.849025,0.3289 -6.309156,1.9801 -1.4134638,1.5984 -2.0029316,4.3381 -1.1550577,6.2961 0.4470691,1.0325 2.8377837,1.8273 2.8377837,1.8273 l 0.850941,10.0347 9.989429,0.8729 c 0,0 1.372419,1.8529 2.387401,1.894 1.471347,0.06 3.454483,-0.9999 3.671745,-2.4563 0.223628,-1.4989 -1.504801,-2.8766 -2.876526,-3.5209 -2.76885,-1.3007 -9.177075,0.069 -9.177075,0.069 l 1.420123,-9.5219"
       id="path3776"
       inkscape:connector-curvature="0"
       sodipodi:nodetypes="csscccssscc"
       inkscape:transform-center-x="-5.0830803"
       inkscape:transform-center-y="6.285097" />
  </g>
  <g
     inkscape:groupmode="layer"
     id="layer2"
     inkscape:label="overlay">
    <path
       inkscape:connector-curvature="0"
       style="color:#000000;fill:#ffffff;fill-opacity:1;fill-rule:nonzero;stroke:none;stroke-width:1;marker:none;visibility:visible;display:inline;overflow:visible;enable-background:accumulate"
       d="m 19.5,19.8125 c -0.875872,0.175861 -1.743309,0.479227 -2.40625,1 l 1.09375,4.96875 -0.96875,6.625 c 0.02081,0.05306 0.04152,0.103344 0.0625,0.15625 L 21.1875,31.59375 30.09375,23.875 c -3.297605,0.05308 -6.261995,0.04399 -8.5,-2.03125 C 20.800553,21.108241 20.096496,20.450809 19.5,19.8125 z m 26.25,3.6875 -4.84375,2.875 7.375,0.96875 c 0.09626,-0.555252 0.157453,-1.098632 0.1875,-1.625 L 46.34375,24.75 45.75,23.5 z m -6.875,4.0625 -11.53125,6.875 2.28125,5.46875 -1.6875,1.5 L 27.375,40.625 c -0.684527,0.406676 -1.515773,0.622417 -2.21875,0.59375 C 24.141268,41.17775 22.75,39.3125 22.75,39.3125 l -0.96875,-0.09375 -0.71875,0.9375 c 0.577956,0.987884 1.03125,1.71875 1.03125,1.71875 l 19.8125,0 c 0,0 3.0187,-4.64694 4.96875,-9.71875 L 42.90625,32.5625 39.125,32.5 37.03125,29.40625 38.875,27.5625 z"
       id="rect3760-5" />
  </g>
</svg>
