<?xml version="1.0" encoding="UTF-8" standalone="no"?>
<!-- Created with Inkscape (http://www.inkscape.org/) -->

<svg
   xmlns:dc="http://purl.org/dc/elements/1.1/"
   xmlns:cc="http://creativecommons.org/ns#"
   xmlns:rdf="http://www.w3.org/1999/02/22-rdf-syntax-ns#"
   xmlns:svg="http://www.w3.org/2000/svg"
   xmlns="http://www.w3.org/2000/svg"
   xmlns:sodipodi="http://sodipodi.sourceforge.net/DTD/sodipodi-0.dtd"
   xmlns:inkscape="http://www.inkscape.org/namespaces/inkscape"
   width="744.09448819"
   height="1052.3622047"
   id="svg2"
   version="1.1"
   inkscape:version="0.48.3.1 r9886"
   sodipodi:docname="station.svg">
  <defs
     id="defs4" />
  <sodipodi:namedview
     id="base"
     pagecolor="#ffffff"
     bordercolor="#666666"
     borderopacity="1.0"
     inkscape:pageopacity="0"
     inkscape:pageshadow="2"
     inkscape:zoom="1.6458212"
     inkscape:cx="296.40111"
     inkscape:cy="404.66121"
     inkscape:document-units="px"
     inkscape:current-layer="layer1"
     showgrid="false"
     inkscape:window-width="1920"
     inkscape:window-height="1052"
     inkscape:window-x="0"
     inkscape:window-y="0"
     inkscape:window-maximized="1" />
  <metadata
     id="metadata7">
    <rdf:RDF>
      <cc:Work
         rdf:about="">
        <dc:format>image/svg+xml</dc:format>
        <dc:type
           rdf:resource="http://purl.org/dc/dcmitype/StillImage" />
        <dc:title></dc:title>
      </cc:Work>
    </rdf:RDF>
  </metadata>
  <g
     inkscape:label="Layer 1"
     inkscape:groupmode="layer"
     id="layer1">
    <rect
       style="fill:#000000;stroke:#000000;stroke-width:0.8296507;stroke-linejoin:round;stroke-miterlimit:4;stroke-dasharray:none"
       id="rect4028"
       width="135.67674"
       height="135.67674"
       x="81.031799"
       y="623.87543"
       inkscape:export-xdpi="42.200001"
       inkscape:export-ydpi="42.200001" />
    <g
       id="g2993"
       inkscape:export-xdpi="42.200001"
       inkscape:export-ydpi="42.200001">
      <path
         inkscape:export-ydpi="90"
         inkscape:export-xdpi="90"
         inkscape:export-filename="/home/jami/workspace/space-tactics/assets/station-base.png"
         sodipodi:nodetypes="ccccccc"
         inkscape:connector-curvature="0"
         id="rect3816-4-1"
         d="m 140.21852,693.46701 -4.65165,-4 -1.3033,-14 29.21321,0 -1.3033,14 -4.65166,4 z"
         style="fill:#666666;stroke:#000000;stroke-width:1;stroke-linejoin:round;stroke-miterlimit:4;stroke-dasharray:none" />
      <path
         inkscape:export-ydpi="90"
         inkscape:export-xdpi="90"
         inkscape:export-filename="/home/jami/workspace/space-tactics/assets/station-base.png"
         sodipodi:nodetypes="cccccc"
         inkscape:connector-curvature="0"
         id="rect3816-4-6"
         d="m 157.52182,693.467 -4.32583,66 -4.32581,0 -4.32583,0 -4.32582,-66 z"
         style="fill:#666666;stroke:#000000;stroke-width:1;stroke-linejoin:round;stroke-miterlimit:4;stroke-dasharray:none" />
      <path
         inkscape:export-ydpi="90"
         inkscape:export-xdpi="90"
         inkscape:export-filename="/home/jami/workspace/space-tactics/assets/station-base.png"
         sodipodi:nodetypes="csccscc"
         inkscape:connector-curvature="0"
         id="rect3919-8"
         d="m 158.43615,681.27644 c -0.683,-0.35126 -1.91915,-0.0511 -2.47398,0.90545 -0.55465,0.95669 -0.22111,2.21222 0.44241,2.59707 0.13053,0.0758 26.54766,15.33077 26.54766,15.33077 0.55811,0.25618 1.76054,-0.0634 2.31539,-1.01997 0.55464,-0.95668 0.23522,-2.159 -0.29358,-2.46572 -0.0324,-0.0188 -26.53779,-15.34781 -26.53779,-15.34781 z"
         style="fill:#666666;stroke:#000000;stroke-width:1;stroke-linejoin:round;stroke-miterlimit:4;stroke-dasharray:none" />
      <path
         inkscape:export-ydpi="90"
         inkscape:export-xdpi="90"
         inkscape:export-filename="/home/jami/workspace/space-tactics/assets/station-base.png"
         sodipodi:nodetypes="csccscc"
         inkscape:connector-curvature="0"
         id="rect3919-8-5"
         d="m 112.74848,696.78606 c -0.6421,0.42141 -0.98965,1.64509 -0.43047,2.59906 0.55897,0.95416 1.81639,1.28199 2.47813,0.89409 0.13023,-0.0763 26.41774,-15.55358 26.41774,-15.55358 0.49781,-0.35958 0.81195,-1.56342 0.25269,-2.51744 -0.55896,-0.95415 -1.76312,-1.26807 -2.2905,-0.95893 -0.0323,0.0189 -26.42763,15.53674 -26.42763,15.53674 z"
         style="fill:#666666;stroke:#000000;stroke-width:1;stroke-linejoin:round;stroke-miterlimit:4;stroke-dasharray:none" />
      <g
         inkscape:export-ydpi="90"
         inkscape:export-xdpi="90"
         inkscape:export-filename="/home/jami/workspace/space-tactics/assets/station-base.png"
         id="g3822">
        <path
           style="fill:#666666;fill-rule:evenodd;stroke:#000000;stroke-width:1;stroke-linecap:butt;stroke-linejoin:miter;stroke-opacity:1;stroke-miterlimit:4;stroke-dasharray:none"
           d="m 149.753,659.39897 c -27.47617,0 -49.75,11.65052 -49.75,26.00913 0,14.35861 22.27383,26.00913 49.75,26.00913 27.47617,0 49.75,-11.65052 49.75,-26.00913 0,-14.35861 -22.27383,-26.00913 -49.75,-26.00913 z m 0,5.66401 c 21.50817,0 38.9375,9.1053 38.9375,20.34512 0,11.23982 -17.42933,20.34512 -38.9375,20.34512 -21.50817,0 -38.9375,-9.1053 -38.9375,-20.34512 0,-11.23982 17.42933,-20.34512 38.9375,-20.34512 z"
           id="path2985"
           inkscape:connector-curvature="0" />
        <path
           style="fill:#666666;fill-rule:evenodd;stroke:#000000;stroke-width:1;stroke-linecap:butt;stroke-linejoin:miter;stroke-opacity:1;stroke-miterlimit:4;stroke-dasharray:none"
           d="m 147.98735,654.61692 c -27.47617,0 -49.750004,11.65052 -49.750004,26.00913 0,14.35861 22.273834,26.00913 49.750004,26.00913 27.47617,0 49.75,-11.65052 49.75,-26.00913 0,-14.35861 -22.27383,-26.00913 -49.75,-26.00913 z m 0,5.66401 c 21.50817,0 38.9375,9.1053 38.9375,20.34512 0,11.23982 -17.42933,20.34512 -38.9375,20.34512 -21.50817,0 -38.9375,-9.1053 -38.9375,-20.34512 0,-11.23982 17.42933,-20.34512 38.9375,-20.34512 z"
           id="path2985-4"
           inkscape:connector-curvature="0" />
      </g>
      <path
         inkscape:export-ydpi="90"
         inkscape:export-xdpi="90"
         inkscape:export-filename="/home/jami/workspace/space-tactics/assets/station-base.png"
         sodipodi:nodetypes="cccccccccc"
         inkscape:connector-curvature="0"
         id="rect3816"
         d="m 127.65697,630.21523 10.6066,-4 10.6066,-2 10.60661,2 10.6066,4 0,41.45856 -6.6066,4 c -10.16375,0 -20.01682,0 -29.21321,0 l -6.6066,-4 z"
         style="fill:#666666;stroke:#000000;stroke-width:1;stroke-linejoin:round;stroke-miterlimit:4;stroke-dasharray:none" />
    </g>
    <path
       style="fill:#666666;stroke:#000000;stroke-width:1;stroke-linejoin:round;stroke-miterlimit:4;stroke-dasharray:none"
       d="m 247.48737,634.80667 10.6066,-4 10.6066,-2 10.60661,2 10.6066,4 0,41.45856 -6.6066,4 -1.3033,14 -4.65166,4 -4.32583,66 -4.32582,0 -4.32583,0 -4.32582,-66 -4.65165,-4 -1.3033,-14 -6.6066,-4 z"
       id="rect3816-4"
       inkscape:connector-curvature="0"
       sodipodi:nodetypes="ccccccccccccccccc" />
    <path
       style="fill:#666666;stroke:#000000;stroke-width:1;stroke-linejoin:round;stroke-miterlimit:4"
       d="m 37.420034,676.16965 c -0.61567,0.0312 -1.35307,0.7374 -1.35307,1.625 0,0.8876 0.7374,1.625 1.35307,1.625 0.12113,0 24.60635,-0.0469 24.60635,-0.0469 0.49068,-0.0469 1.19683,-0.75302 1.19683,-1.64062 0,-0.8876 -0.70615,-1.59375 -1.19683,-1.59375 -0.03,0 -24.60635,0.0312 -24.60635,0.0312 z"
       id="rect3919"
       inkscape:connector-curvature="0"
       sodipodi:nodetypes="csccscc" />
  </g>
</svg>
